<?xml version="1.0" encoding="utf-8"?>
<!-- Generator: Adobe Illustrator 27.5.0, SVG Export Plug-In . SVG Version: 6.00 Build 0)  -->
<svg version="1.1" id="Layer_1" xmlns="http://www.w3.org/2000/svg" xmlns:xlink="http://www.w3.org/1999/xlink" x="0px" y="0px"
	 viewBox="0 0 363.795 503.037" style="enable-background:new 0 0 363.795 503.037;" xml:space="preserve">
<g>
	<path style="fill:#303133;" d="M333.577,257.163c-4.454-12.864-11.216-24.459-17.074-36.677
		c-6.394-13.333-8.224-27.367-8.918-41.993c-0.379-7.983-0.816-15.946-1.544-23.906c-0.15-1.642-0.332-3.278-0.527-4.912
		c0.622-0.32,1.143-0.877,1.163-1.522c0.362-11.797-5.371-22.616-10.663-32.792c-5.344-10.275-10.191-20.634-17.238-29.908
		c-14.275-18.784-35.164-30.859-58.451-34.486c-24.51-3.818-49.015,1.745-72.003,10.15c-12.015,4.393-23.683,9.723-34.939,15.796
		C103.248,82.38,93.459,88.705,85.216,96.81c-4.667,4.589-8.869,9.791-11.852,15.64c-2.937,5.758-4.765,11.943-6.244,18.214
		c-1.652,7.009-2.875,14.083-3.342,21.277c-0.357,5.503-2.323,11.857-0.063,17.147c0.092,0.216,0.265,0.311,0.458,0.323
		c-3.049,16.15-6.573,32.334-12.107,47.826c-5.668,15.866-13.207,30.949-20.306,46.201c-3.198,6.87-6.677,13.779-9.133,20.958
		c-1.937,5.662-3.117,11.61-3.748,17.554c-1.359,12.802-0.762,28.566,7.563,39.142c0.759,0.965,2.862-0.237,2.441-1.375
		c-2.689-7.28-3.179-15.155-2.709-22.984c0.065,0.955,0.142,1.91,0.248,2.865c1.111,10.07,4.66,19.742,9.316,28.695
		c4.604,8.854,10.73,17.029,19.613,21.888c0.963,0.527,3.305-0.91,2.275-1.953c-5.655-5.725-9.417-13.37-11.954-20.924
		c-1.28-3.812-2.383-7.941-2.873-12.106c2.401,10.742,6.948,20.92,14.466,29.202c11.438,12.601,27.589,18.596,43.975,21.643
		c20.806,3.869,42.098,3.027,63.118,1.915c11.524-0.61,23.072-1.555,34.464-3.381c6.583-0.215,13.158-0.739,19.652-1.572
		c25.881-3.321,53.61-11.797,71.954-31.313c3.878-4.126,7.472-8.683,10.201-13.683c-2.866,10.081-7.723,19.822-12.152,29.301
		c-0.51,1.092,0.88,1.477,1.64,1.151c13.859-5.941,22.105-19.717,27.643-33.084c4.365-10.536,7.558-21.405,8.658-32.561
		c0.028,0.851,0.043,1.702,0.038,2.552c-0.022,4.269-0.415,8.527-0.356,12.798c0.048,3.407,0.03,7.66,2.172,10.52
		c0.622,0.831,1.847,0.143,2.292-0.502C344.72,307.657,341.276,279.401,333.577,257.163z M66.376,152.826
		c0.871-6.262,1.636-12.438,3.068-18.611c0.844-3.64,1.778-7.225,2.908-10.714c-1.136,5.871-2.275,11.74-3.255,17.645
		c-1.402,8.449-2.812,16.9-4.373,25.321C64.216,161.95,65.762,157.239,66.376,152.826z"/>
	<path style="fill:#303133;" d="M289.793,328.808c3.584-12.319,5.897-25.379,5.09-38.246c-0.022-0.345,0.507-0.491,0.661-0.179
		c2.714,5.507,4.037,11.84,3.785,18.029c2.547-10.154,4.507-20.464,5.551-30.884c2.123-21.191,0.371-43.141-9.157-62.476
		c-4.732-9.603-10.967-18.241-17.655-26.558c1.253,2.091,2.35,4.272,3.221,6.555c0.163,0.428-0.523,0.611-0.684,0.189
		c-0.991-2.6-2.296-5.063-3.785-7.411c-3.322-5.24-7.487-9.938-11.957-14.222c-4.041-3.873-8.406-7.542-13.099-10.604
		c-9.01-5.88-19.457-9.282-29.988-11.174c-21.578-3.876-44.565-2.156-65.381,4.646c-22.472,7.342-43.319,20.005-59.143,37.659
		c-15.189,16.946-26.628,37.498-33.36,59.218c-6.694,21.595-8.74,45.133-2.483,67.082c0.11,0.387-0.455,0.626-0.648,0.273
		c-4.402-8.018-6.224-17.098-7.615-26.063c-2.757,11.661-0.911,24.131,2,35.576c1.343,5.279,2.99,10.479,4.837,15.603
		c0.903,2.504,1.782,5.015,2.977,7.396c2.543,5.065,5.421,9.975,8.338,14.83c2.266,3.771,4.586,7.524,7.045,11.181
		c7.25,3.216,15.045,5.355,22.896,6.815c20.806,3.869,42.098,3.027,63.118,1.915c11.524-0.61,23.072-1.555,34.464-3.381
		c6.583-0.215,13.158-0.739,19.652-1.572c18.594-2.386,38.142-7.433,54.478-17.323C280.573,354.483,286.019,341.779,289.793,328.808
		z"/>
	<g>
		<path style="fill:#EFB291;" d="M271.007,357.7c0,0-35.644-17.556-48.944-29.26c-13.3-11.704-9.576-76.076-9.576-76.076h-26.068
			h-9.044h-26.068c0,0,3.724,64.372-9.576,76.076c-13.3,11.704-48.944,29.26-48.944,29.26s29.067,48.15,56.446,73.565
			c0,0,7.091,10.993,32.663,10.491c25.573,0.502,32.663-10.491,32.663-10.491C241.94,405.85,271.007,357.7,271.007,357.7z"/>
		<path style="opacity:0.49;fill:#EB936D;" d="M151.271,290.687c1.815,0.977,3.704,1.821,5.631,2.536
			c4.987,1.852,10.24,2.951,15.511,3.605c5.454,0.676,10.986,0.959,16.478,0.708c5.756-0.262,11.501-1.148,16.993-2.918
			c2.302-0.742,4.546-1.653,6.715-2.714c-1.26-19.669-0.112-39.541-0.112-39.541h-61.18
			C151.308,252.364,152.409,271.424,151.271,290.687z"/>
		<path style="opacity:0.49;fill:#EB936D;" d="M222.063,328.44c-3.14-2.763-5.33-8.462-6.846-15.556
			c-6.236,2.26-12.208,5.288-17.519,9.274c-6.444,4.837-11.72,11.098-15.184,18.386c-0.135,0.283-0.574,0.192-0.648-0.085
			c-0.939-3.503-2.516-6.796-4.571-9.781c-3.728-5.415-8.921-9.737-14.604-12.979c-4.36-2.486-9.075-4.38-13.954-5.583
			c-1.52,7.449-3.753,13.462-7.006,16.324c-13.3,11.704-48.944,29.26-48.944,29.26s29.067,48.15,56.446,73.565
			c0,0,7.091,10.993,32.664,10.491c25.573,0.502,32.663-10.491,32.663-10.491c27.379-25.414,56.446-73.565,56.446-73.565
			S235.363,340.144,222.063,328.44z"/>
		<g>
			<path style="fill:#EF3825;" d="M320.827,365.361c-11.578-8.336-82.432-31.028-82.432-31.028l-6.02-2.779l-50.478,27.786
				l-50.478-27.786l-6.02,2.779c0,0-70.854,22.692-82.432,31.028C31.39,373.696,6.846,440.383,5.457,495.491h80.116h192.649h80.116
				C356.949,440.383,332.405,373.696,320.827,365.361z"/>
			<rect x="179.119" y="359.34" style="fill:#DCDABE;" width="5.557" height="136.114"/>
			<path style="fill:#C32F1D;" d="M132.114,306.779c0,0,15.745,6.02,32.88,18.061c17.135,12.041,17.135,34.732,17.135,34.732
				c0.231,0.232-36.816-14.125-56.73-25.239C125.399,334.333,128.641,308.399,132.114,306.779z"/>
			<path style="fill:#C32F1D;" d="M231.681,306.779c0,0-15.745,6.02-32.88,18.061c-17.135,12.041-17.135,34.732-17.135,34.732
				c-0.232,0.232,36.816-14.125,56.73-25.239C238.396,334.333,235.154,308.399,231.681,306.779z"/>
		</g>
		<path style="fill:#939598;" d="M43.797,371.844c0,0,13.893,28.712,17.135,53.719c3.242,25.007,3.705,69.928,3.705,69.928h-4.168
			c0,0,0.926-54.183-3.242-77.801C53.058,394.073,43.797,371.844,43.797,371.844z"/>
		<path style="fill:#939598;" d="M322.119,371.844c0,0-13.893,28.712-17.135,53.719c-3.242,25.007-3.705,69.928-3.705,69.928h4.168
			c0,0-0.926-54.183,3.242-77.801C312.857,394.073,322.119,371.844,322.119,371.844z"/>
		<g>
			<g>
				<path style="fill:#FFFCD7;" d="M184.243,357.199c-0.008-0.006-0.017-0.008-0.025-0.014c0.042-0.008,0.08-0.077,0.022-0.078
					c-0.056-0.001-0.113,0-0.169-0.002c-0.236-0.104-0.516-0.123-0.765-0.124c-0.366-0.001-0.729,0.064-1.094,0.068
					c-0.042,0-0.078,0.031-0.104,0.066c-2.115,0.057-4.228,0.236-6.343,0.3c-2.859,0.087-5.738,0.152-8.596,0.026
					c-2.841-0.125-5.634-0.553-8.432-1.038c-2.077-0.36-4.818-0.788-6.512,0.819c-0.758,0.718-1.213,1.763-1.148,2.813
					c0.064,1.02,0.627,1.956,1.466,2.533c0.808,0.556,1.802,0.736,2.761,0.818c1.361,0.116,2.737,0.125,4.102,0.138
					c2.875,0.027,5.75-0.065,8.623-0.176c2.868-0.11,5.726-0.276,8.585-0.531c1.168-0.104,2.363-0.155,3.516-0.377
					c1.074-0.207,1.974-0.643,2.755-1.413c0.765-0.755,1.491-1.743,1.633-2.838C184.563,357.834,184.557,357.431,184.243,357.199z"
					/>
				<path style="fill:#FFFCD7;" d="M179.34,358.188c0.142,1.095,0.868,2.083,1.633,2.838c0.78,0.77,1.681,1.206,2.755,1.413
					c1.153,0.222,2.348,0.273,3.516,0.377c2.859,0.255,5.717,0.421,8.585,0.531c2.873,0.11,5.748,0.203,8.623,0.176
					c1.365-0.013,2.741-0.022,4.102-0.138c0.959-0.082,1.953-0.262,2.761-0.818c0.839-0.577,1.402-1.513,1.466-2.533
					c0.065-1.049-0.39-2.094-1.148-2.813c-1.694-1.606-4.435-1.179-6.512-0.819c-2.798,0.485-5.591,0.914-8.432,1.038
					c-2.859,0.126-5.738,0.06-8.596-0.026c-2.115-0.064-4.228-0.243-6.343-0.3c-0.027-0.035-0.063-0.065-0.105-0.066
					c-0.366-0.003-0.728-0.069-1.094-0.068c-0.249,0.001-0.529,0.02-0.765,0.124c-0.056,0.001-0.113,0-0.169,0.002
					c-0.059,0.001-0.02,0.07,0.022,0.078c-0.008,0.005-0.017,0.008-0.025,0.014C179.299,357.431,179.294,357.834,179.34,358.188z"/>
				<g>
					<path style="fill:#8C8D7C;" d="M188.605,359.594c0.128-0.248,0.223-0.512,0.269-0.8c0.107-0.67-0.027-1.373-0.291-1.991
						c-0.276-0.644-0.707-1.3-1.354-1.615c-0.56-0.273-1.184-0.255-1.786-0.169c0.029-0.158,0.018-0.317-0.077-0.462
						c-0.036-0.054-0.097-0.061-0.158-0.043c-0.587-0.818-1.84-0.999-2.775-0.956c-0.682,0.032-1.347,0.192-1.98,0.439
						c-0.31-0.289-0.894-0.134-1.254-0.042c-0.57,0.147-1.142,0.302-1.676,0.555c-0.963,0.457-1.728,1.318-1.934,2.384
						c-0.051,0.264-0.059,0.546,0.023,0.805c0.049,0.155,0.142,0.336,0.271,0.459c-0.53,0.909-0.955,1.885-1.145,2.92
						c-0.209,1.145-0.19,2.676,0.715,3.532c0.385,0.364,0.889,0.602,1.41,0.689c0.343,0.057,0.741,0.07,1.079-0.054
						c-0.023,0.382,0.172,0.774,0.527,0.959c0.567,0.294,1.265,0.114,1.831-0.085c0.698-0.246,1.357-0.583,1.986-0.972
						c0.755,0.324,1.524,0.521,2.339,0.615c0.777,0.09,1.517,0.123,2.224-0.265c1.269-0.697,2.262-2.133,2.421-3.576
						C189.361,361.097,189.132,360.239,188.605,359.594z"/>
					<g>
						<path style="fill:#C4C3AB;" d="M175.978,357.78c-0.062-0.108-0.101-0.228-0.122-0.351c-0.047-0.278,0.005-0.567,0.092-0.832
							c0.176-0.533,0.504-1.062,0.943-1.417c0.529-0.428,1.202-0.657,1.849-0.841c0.443-0.126,0.961-0.314,1.43-0.228
							c-0.411,0.181-0.807,0.399-1.181,0.646c-1.035,0.682-1.924,1.585-2.614,2.613c-0.111,0.165-0.218,0.334-0.323,0.504
							C176.026,357.844,175.998,357.815,175.978,357.78z"/>
						<path style="fill:#C4C3AB;" d="M178.185,364.729c-0.04,0.01-0.08,0.032-0.104,0.07c-0.012,0.02-0.019,0.041-0.03,0.061
							c-0.038,0.028-0.079,0.053-0.125,0.073c-0.456,0.188-1.08,0.045-1.51-0.15c-0.457-0.207-0.865-0.561-1.085-1.017
							c-0.266-0.551-0.322-1.249-0.306-1.852c0.035-1.273,0.515-2.487,1.142-3.579c0.585-1.018,1.293-1.952,2.192-2.714
							c0.99-0.839,2.179-1.47,3.471-1.667c0.609-0.093,1.249-0.098,1.85,0.049c0.52,0.127,0.952,0.382,1.347,0.722
							c0.002,0.019,0.007,0.038,0.019,0.056c0.118,0.179-0.006,0.444-0.092,0.609c-0.164,0.317-0.39,0.602-0.619,0.874
							c-0.48,0.569-1.012,1.089-1.534,1.619c-0.67,0.68-1.209,1.497-1.764,2.27c-0.813,1.133-1.519,2.32-2.214,3.528
							c-0.159,0.276-0.316,0.553-0.484,0.823C178.293,364.582,178.243,364.659,178.185,364.729z"/>
						<path style="fill:#C4C3AB;" d="M181.513,365.27c-0.615,0.326-1.295,0.655-1.992,0.747c-0.333,0.044-0.72,0.017-0.984-0.215
							c-0.186-0.163-0.319-0.454-0.298-0.716c0.002-0.001,0.004-0.002,0.005-0.004c0.171-0.131,0.294-0.309,0.406-0.49
							c0.201-0.324,0.389-0.656,0.578-0.987c0.377-0.658,0.75-1.318,1.16-1.956c0.426-0.664,0.883-1.308,1.351-1.943
							c0.341-0.462,0.694-0.99,1.055-1.386c0.585-0.642,1.232-1.222,1.793-1.888c0.271-0.322,0.541-0.661,0.725-1.042
							c0.029-0.059,0.056-0.121,0.079-0.185c0.496-0.026,1.013-0.046,1.483,0.13c0.552,0.206,0.939,0.677,1.221,1.176
							c0.624,1.105,0.758,2.511-0.104,3.525c-0.427,0.503-0.964,0.912-1.453,1.352c-0.553,0.498-1.096,1.007-1.667,1.486
							C183.82,363.758,182.73,364.626,181.513,365.27z"/>
						<path style="fill:#C4C3AB;" d="M188.898,362.311c-0.187,0.862-0.673,1.662-1.294,2.28c-0.319,0.317-0.689,0.6-1.105,0.776
							c-0.415,0.175-0.866,0.171-1.307,0.134c-0.471-0.04-0.95-0.089-1.411-0.196c-0.399-0.093-0.781-0.231-1.166-0.366
							c0.579-0.38,1.135-0.797,1.671-1.228c0.647-0.519,1.272-1.061,1.886-1.619c0.59-0.537,1.223-1.043,1.78-1.615
							c0.196-0.201,0.37-0.416,0.517-0.646C188.868,360.614,189.092,361.419,188.898,362.311z"/>
					</g>
				</g>
			</g>
			<g>
				<path style="fill:#FFFCD7;" d="M184.243,418.791c-0.008-0.006-0.017-0.008-0.025-0.014c0.042-0.008,0.08-0.077,0.022-0.078
					c-0.056-0.001-0.113-0.001-0.169-0.002c-0.236-0.104-0.516-0.123-0.765-0.124c-0.366-0.001-0.729,0.064-1.094,0.068
					c-0.042,0-0.078,0.031-0.104,0.065c-2.115,0.057-4.228,0.236-6.343,0.3c-2.859,0.087-5.738,0.152-8.596,0.026
					c-2.841-0.125-5.634-0.553-8.432-1.038c-2.077-0.36-4.818-0.787-6.512,0.819c-0.758,0.719-1.213,1.764-1.148,2.813
					c0.064,1.02,0.627,1.956,1.466,2.533c0.808,0.556,1.802,0.736,2.761,0.818c1.361,0.116,2.737,0.125,4.102,0.138
					c2.875,0.027,5.75-0.065,8.623-0.175c2.868-0.11,5.726-0.276,8.585-0.531c1.168-0.104,2.363-0.155,3.516-0.377
					c1.074-0.207,1.974-0.643,2.755-1.413c0.765-0.755,1.491-1.743,1.633-2.838C184.563,419.426,184.557,419.023,184.243,418.791z"
					/>
				<path style="fill:#FFFCD7;" d="M179.34,419.78c0.142,1.095,0.868,2.083,1.633,2.838c0.78,0.77,1.681,1.206,2.755,1.413
					c1.153,0.222,2.348,0.273,3.516,0.377c2.859,0.255,5.717,0.421,8.585,0.531c2.873,0.11,5.748,0.202,8.623,0.175
					c1.365-0.013,2.741-0.022,4.102-0.138c0.959-0.082,1.953-0.262,2.761-0.818c0.839-0.577,1.402-1.513,1.466-2.533
					c0.065-1.049-0.39-2.094-1.148-2.813c-1.694-1.606-4.435-1.179-6.512-0.819c-2.798,0.485-5.591,0.914-8.432,1.038
					c-2.859,0.126-5.738,0.06-8.596-0.026c-2.115-0.064-4.228-0.243-6.343-0.3c-0.027-0.035-0.063-0.065-0.105-0.065
					c-0.366-0.003-0.728-0.069-1.094-0.068c-0.249,0.001-0.529,0.02-0.765,0.124c-0.056,0.001-0.113,0-0.169,0.002
					c-0.059,0.001-0.02,0.07,0.022,0.078c-0.008,0.005-0.017,0.008-0.025,0.014C179.299,419.023,179.294,419.426,179.34,419.78z"/>
				<g>
					<path style="fill:#8C8D7C;" d="M188.605,421.186c0.128-0.248,0.223-0.512,0.269-0.8c0.107-0.669-0.027-1.373-0.291-1.991
						c-0.276-0.644-0.707-1.3-1.354-1.615c-0.56-0.273-1.184-0.255-1.786-0.169c0.029-0.158,0.018-0.317-0.077-0.462
						c-0.036-0.054-0.097-0.061-0.158-0.044c-0.587-0.818-1.84-0.999-2.775-0.956c-0.682,0.031-1.347,0.192-1.98,0.439
						c-0.31-0.289-0.894-0.134-1.254-0.042c-0.57,0.147-1.142,0.302-1.676,0.555c-0.963,0.457-1.728,1.318-1.934,2.384
						c-0.051,0.264-0.059,0.546,0.023,0.805c0.049,0.155,0.142,0.336,0.271,0.459c-0.53,0.909-0.955,1.885-1.145,2.921
						c-0.209,1.145-0.19,2.676,0.715,3.532c0.385,0.364,0.889,0.602,1.41,0.689c0.343,0.057,0.741,0.07,1.079-0.054
						c-0.023,0.382,0.172,0.774,0.527,0.959c0.567,0.294,1.265,0.115,1.831-0.085c0.698-0.246,1.357-0.583,1.986-0.972
						c0.755,0.324,1.524,0.521,2.339,0.615c0.777,0.09,1.517,0.123,2.224-0.265c1.269-0.697,2.262-2.133,2.421-3.576
						C189.361,422.689,189.132,421.831,188.605,421.186z"/>
					<g>
						<path style="fill:#C4C3AB;" d="M175.978,419.372c-0.062-0.108-0.101-0.228-0.122-0.351c-0.047-0.278,0.005-0.567,0.092-0.832
							c0.176-0.533,0.504-1.062,0.943-1.417c0.529-0.428,1.202-0.657,1.849-0.841c0.443-0.126,0.961-0.314,1.43-0.228
							c-0.411,0.181-0.807,0.399-1.181,0.646c-1.035,0.682-1.924,1.585-2.614,2.613c-0.111,0.165-0.218,0.334-0.323,0.504
							C176.026,419.436,175.998,419.407,175.978,419.372z"/>
						<path style="fill:#C4C3AB;" d="M178.185,426.321c-0.04,0.01-0.08,0.032-0.104,0.07c-0.012,0.02-0.019,0.041-0.03,0.061
							c-0.038,0.028-0.079,0.053-0.125,0.073c-0.456,0.188-1.08,0.045-1.51-0.15c-0.457-0.207-0.865-0.561-1.085-1.017
							c-0.266-0.551-0.322-1.249-0.306-1.852c0.035-1.273,0.515-2.487,1.142-3.579c0.585-1.018,1.293-1.952,2.192-2.714
							c0.99-0.839,2.179-1.47,3.471-1.667c0.609-0.093,1.249-0.098,1.85,0.049c0.52,0.127,0.952,0.383,1.347,0.722
							c0.002,0.019,0.007,0.038,0.019,0.056c0.118,0.179-0.006,0.444-0.092,0.609c-0.164,0.317-0.39,0.603-0.619,0.874
							c-0.48,0.569-1.012,1.089-1.534,1.619c-0.67,0.68-1.209,1.496-1.764,2.27c-0.813,1.133-1.519,2.32-2.214,3.528
							c-0.159,0.276-0.316,0.553-0.484,0.823C178.293,426.174,178.243,426.251,178.185,426.321z"/>
						<path style="fill:#C4C3AB;" d="M181.513,426.862c-0.615,0.326-1.295,0.655-1.992,0.747c-0.333,0.044-0.72,0.017-0.984-0.215
							c-0.186-0.163-0.319-0.454-0.298-0.716c0.002-0.001,0.004-0.002,0.005-0.004c0.171-0.131,0.294-0.309,0.406-0.49
							c0.201-0.324,0.389-0.656,0.578-0.987c0.377-0.658,0.75-1.318,1.16-1.956c0.426-0.664,0.883-1.308,1.351-1.943
							c0.341-0.462,0.694-0.99,1.055-1.386c0.585-0.642,1.232-1.222,1.793-1.888c0.271-0.322,0.541-0.661,0.725-1.042
							c0.029-0.059,0.056-0.121,0.079-0.185c0.496-0.026,1.013-0.046,1.483,0.13c0.552,0.206,0.939,0.677,1.221,1.176
							c0.624,1.105,0.758,2.511-0.104,3.525c-0.427,0.503-0.964,0.912-1.453,1.352c-0.553,0.498-1.096,1.007-1.667,1.485
							C183.82,425.35,182.73,426.219,181.513,426.862z"/>
						<path style="fill:#C4C3AB;" d="M188.898,423.903c-0.187,0.862-0.673,1.662-1.294,2.28c-0.319,0.317-0.689,0.6-1.105,0.776
							c-0.415,0.175-0.866,0.171-1.307,0.134c-0.471-0.04-0.95-0.089-1.411-0.196c-0.399-0.093-0.781-0.231-1.166-0.366
							c0.579-0.38,1.135-0.797,1.671-1.228c0.647-0.519,1.272-1.061,1.886-1.619c0.59-0.537,1.223-1.043,1.78-1.615
							c0.196-0.201,0.37-0.416,0.517-0.646C188.868,422.206,189.092,423.011,188.898,423.903z"/>
					</g>
				</g>
			</g>
			<g>
				<path style="fill:#FFFCD7;" d="M184.243,480.383c-0.008-0.006-0.017-0.008-0.025-0.014c0.042-0.008,0.08-0.077,0.022-0.078
					c-0.056-0.001-0.113-0.001-0.169-0.002c-0.236-0.104-0.516-0.123-0.765-0.124c-0.366-0.001-0.729,0.064-1.094,0.068
					c-0.042,0-0.078,0.031-0.104,0.066c-2.115,0.057-4.228,0.236-6.343,0.3c-2.859,0.087-5.738,0.152-8.596,0.026
					c-2.841-0.125-5.634-0.553-8.432-1.038c-2.077-0.36-4.818-0.788-6.512,0.818c-0.758,0.719-1.213,1.764-1.148,2.813
					c0.064,1.02,0.627,1.956,1.466,2.533c0.808,0.556,1.802,0.736,2.761,0.817c1.361,0.116,2.737,0.126,4.102,0.138
					c2.875,0.027,5.75-0.065,8.623-0.176c2.868-0.11,5.726-0.276,8.585-0.531c1.168-0.104,2.363-0.155,3.516-0.377
					c1.074-0.207,1.974-0.643,2.755-1.413c0.765-0.755,1.491-1.743,1.633-2.838C184.563,481.019,184.557,480.616,184.243,480.383z"
					/>
				<path style="fill:#FFFCD7;" d="M179.34,481.373c0.142,1.095,0.868,2.083,1.633,2.838c0.78,0.77,1.681,1.206,2.755,1.413
					c1.153,0.222,2.348,0.273,3.516,0.377c2.859,0.255,5.717,0.421,8.585,0.531c2.873,0.11,5.748,0.203,8.623,0.176
					c1.365-0.013,2.741-0.022,4.102-0.138c0.959-0.082,1.953-0.261,2.761-0.817c0.839-0.577,1.402-1.513,1.466-2.533
					c0.065-1.049-0.39-2.094-1.148-2.813c-1.694-1.606-4.435-1.179-6.512-0.818c-2.798,0.485-5.591,0.914-8.432,1.038
					c-2.859,0.125-5.738,0.06-8.596-0.026c-2.115-0.064-4.228-0.243-6.343-0.3c-0.027-0.035-0.063-0.065-0.105-0.066
					c-0.366-0.003-0.728-0.069-1.094-0.068c-0.249,0.001-0.529,0.02-0.765,0.124c-0.056,0.001-0.113,0-0.169,0.002
					c-0.059,0.001-0.02,0.07,0.022,0.078c-0.008,0.005-0.017,0.008-0.025,0.014C179.299,480.616,179.294,481.019,179.34,481.373z"/>
				<g>
					<path style="fill:#8C8D7C;" d="M188.605,482.778c0.128-0.248,0.223-0.512,0.269-0.8c0.107-0.669-0.027-1.373-0.291-1.991
						c-0.276-0.644-0.707-1.3-1.354-1.615c-0.56-0.273-1.184-0.255-1.786-0.169c0.029-0.158,0.018-0.317-0.077-0.462
						c-0.036-0.054-0.097-0.061-0.158-0.044c-0.587-0.818-1.84-0.999-2.775-0.956c-0.682,0.032-1.347,0.192-1.98,0.44
						c-0.31-0.29-0.894-0.134-1.254-0.042c-0.57,0.147-1.142,0.302-1.676,0.555c-0.963,0.457-1.728,1.318-1.934,2.384
						c-0.051,0.264-0.059,0.546,0.023,0.805c0.049,0.155,0.142,0.336,0.271,0.459c-0.53,0.909-0.955,1.885-1.145,2.92
						c-0.209,1.145-0.19,2.676,0.715,3.532c0.385,0.364,0.889,0.602,1.41,0.689c0.343,0.057,0.741,0.07,1.079-0.054
						c-0.023,0.382,0.172,0.774,0.527,0.959c0.567,0.294,1.265,0.115,1.831-0.085c0.698-0.246,1.357-0.583,1.986-0.972
						c0.755,0.324,1.524,0.521,2.339,0.615c0.777,0.09,1.517,0.123,2.224-0.265c1.269-0.697,2.262-2.133,2.421-3.576
						C189.361,484.281,189.132,483.423,188.605,482.778z"/>
					<g>
						<path style="fill:#C4C3AB;" d="M175.978,480.964c-0.062-0.108-0.101-0.228-0.122-0.351c-0.047-0.278,0.005-0.567,0.092-0.832
							c0.176-0.533,0.504-1.062,0.943-1.417c0.529-0.428,1.202-0.657,1.849-0.841c0.443-0.126,0.961-0.314,1.43-0.228
							c-0.411,0.181-0.807,0.399-1.181,0.646c-1.035,0.682-1.924,1.585-2.614,2.613c-0.111,0.165-0.218,0.334-0.323,0.504
							C176.026,481.028,175.998,480.999,175.978,480.964z"/>
						<path style="fill:#C4C3AB;" d="M178.185,487.913c-0.04,0.01-0.08,0.032-0.104,0.07c-0.012,0.02-0.019,0.041-0.03,0.061
							c-0.038,0.028-0.079,0.053-0.125,0.073c-0.456,0.188-1.08,0.045-1.51-0.15c-0.457-0.207-0.865-0.561-1.085-1.017
							c-0.266-0.551-0.322-1.249-0.306-1.852c0.035-1.273,0.515-2.487,1.142-3.579c0.585-1.018,1.293-1.952,2.192-2.714
							c0.99-0.839,2.179-1.47,3.471-1.667c0.609-0.093,1.249-0.098,1.85,0.049c0.52,0.127,0.952,0.382,1.347,0.722
							c0.002,0.019,0.007,0.038,0.019,0.056c0.118,0.179-0.006,0.444-0.092,0.609c-0.164,0.316-0.39,0.602-0.619,0.874
							c-0.48,0.569-1.012,1.089-1.534,1.619c-0.67,0.68-1.209,1.496-1.764,2.27c-0.813,1.133-1.519,2.32-2.214,3.528
							c-0.159,0.276-0.316,0.553-0.484,0.823C178.293,487.766,178.243,487.843,178.185,487.913z"/>
						<path style="fill:#C4C3AB;" d="M181.513,488.455c-0.615,0.326-1.295,0.655-1.992,0.747c-0.333,0.044-0.72,0.017-0.984-0.215
							c-0.186-0.163-0.319-0.454-0.298-0.716c0.002-0.001,0.004-0.002,0.005-0.004c0.171-0.131,0.294-0.309,0.406-0.49
							c0.201-0.324,0.389-0.656,0.578-0.987c0.377-0.658,0.75-1.318,1.16-1.956c0.426-0.664,0.883-1.308,1.351-1.943
							c0.341-0.462,0.694-0.99,1.055-1.386c0.585-0.642,1.232-1.222,1.793-1.888c0.271-0.322,0.541-0.661,0.725-1.042
							c0.029-0.059,0.056-0.121,0.079-0.185c0.496-0.026,1.013-0.046,1.483,0.13c0.552,0.206,0.939,0.677,1.221,1.176
							c0.624,1.105,0.758,2.511-0.104,3.525c-0.427,0.503-0.964,0.912-1.453,1.352c-0.553,0.498-1.096,1.007-1.667,1.486
							C183.82,486.942,182.73,487.811,181.513,488.455z"/>
						<path style="fill:#C4C3AB;" d="M188.898,485.495c-0.187,0.862-0.673,1.662-1.294,2.28c-0.319,0.317-0.689,0.6-1.105,0.776
							c-0.415,0.175-0.866,0.171-1.307,0.134c-0.471-0.04-0.95-0.089-1.411-0.196c-0.399-0.093-0.781-0.231-1.166-0.367
							c0.579-0.38,1.135-0.797,1.671-1.228c0.647-0.519,1.272-1.061,1.886-1.619c0.59-0.537,1.223-1.043,1.78-1.615
							c0.196-0.201,0.37-0.416,0.517-0.646C188.868,483.799,189.092,484.603,188.898,485.495z"/>
					</g>
				</g>
			</g>
		</g>
	</g>
	<g>
		<path style="fill:#EFB291;" d="M302.025,175.594c-3.195-10.595-14.762-15.928-25.644-11.945
			c-6.224,2.278-10.773,8.022-13.342,13.676c-1.497,3.296-2.359,6.878-2.818,10.439c-2.279,6.38-3.357,13.382-2.941,20.046
			c0.295,4.719,0.918,13.362,6.006,15.928c4.961,2.502,12.821-1.581,17.028-4.024c5.341-3.102,9.746-7.463,13.327-12.311
			C300.383,198.276,305.402,186.795,302.025,175.594z"/>
		<path style="opacity:0.64;fill:#EB936D;" d="M268.528,224.411c0.691-2.376,1.35-4.761,1.968-7.157
			c2.466-9.555,4.372-19.299,5.171-29.144c0.642-7.918,0.591-15.98-0.783-23.822c-5.458,2.592-9.487,7.849-11.845,13.038
			c-1.497,3.296-2.359,6.878-2.818,10.439c-2.279,6.38-3.357,13.382-2.941,20.046c0.295,4.719,0.918,13.362,6.006,15.928
			C264.821,224.512,266.633,224.654,268.528,224.411z"/>
		<path style="fill:#EB936D;" d="M296.85,175.923c-1.193-2.007-3.372-3.191-5.639-3.485c-5.218-0.677-10.584,2.995-13.888,6.702
			c-7.356,8.254-8.73,20.211-9.158,30.798c-0.025,0.62,0.883,0.19,0.949-0.242c0.262-1.707,0.526-3.441,0.816-5.183
			c0.205,1.247,0.508,2.472,0.809,3.57c0.591,2.155,1.93,4.069,4.313,4.198c5.754,0.311,9.744-6.549,12.529-10.474
			c0.262-0.369-0.32-0.475-0.539-0.224c-2.598,2.983-5.287,6.895-9.155,8.321c-3.113,1.148-4.492-1.108-5.336-3.675
			c-0.695-2.116-1.798-4.567-1.324-6.815c0.066-0.312-0.056-0.473-0.242-0.53c1.105-5.163,2.661-10.23,5.297-14.72
			c2.29-3.9,5.76-7.453,10.179-8.844c3.009-0.947,6.289-0.441,8.141,2.32c1.729,2.578,1.193,5.977,1.609,8.925
			c0.049,0.35,0.611,0.014,0.624-0.231C297.021,182.869,298.802,179.206,296.85,175.923z"/>
	</g>
	<g>
		<path style="fill:#EFB291;" d="M302.025,175.594c-3.195-10.595-14.762-15.928-25.644-11.945
			c-6.224,2.278-10.773,8.022-13.342,13.676c-1.497,3.296-2.359,6.878-2.818,10.439c-2.279,6.38-3.357,13.382-2.941,20.046
			c0.295,4.719,0.918,13.362,6.006,15.928c4.961,2.502,12.821-1.581,17.028-4.024c5.341-3.102,9.746-7.463,13.327-12.311
			C300.383,198.276,305.402,186.795,302.025,175.594z"/>
		<path style="opacity:0.64;fill:#EB936D;" d="M268.528,224.411c0.691-2.376,1.35-4.761,1.968-7.157
			c2.466-9.555,4.372-19.299,5.171-29.144c0.642-7.918,0.591-15.98-0.783-23.822c-5.458,2.592-9.487,7.849-11.845,13.038
			c-1.497,3.296-2.359,6.878-2.818,10.439c-2.279,6.38-3.357,13.382-2.941,20.046c0.295,4.719,0.918,13.362,6.006,15.928
			C264.821,224.512,266.633,224.654,268.528,224.411z"/>
		<path style="fill:#EB936D;" d="M296.85,175.923c-1.193-2.007-3.372-3.191-5.639-3.485c-5.218-0.677-10.584,2.995-13.888,6.702
			c-7.356,8.254-8.73,20.211-9.158,30.798c-0.025,0.62,0.883,0.19,0.949-0.242c0.262-1.707,0.526-3.441,0.816-5.183
			c0.205,1.247,0.508,2.472,0.809,3.57c0.591,2.155,1.93,4.069,4.313,4.198c5.754,0.311,9.744-6.549,12.529-10.474
			c0.262-0.369-0.32-0.475-0.539-0.224c-2.598,2.983-5.287,6.895-9.155,8.321c-3.113,1.148-4.492-1.108-5.336-3.675
			c-0.695-2.116-1.798-4.567-1.324-6.815c0.066-0.312-0.056-0.473-0.242-0.53c1.105-5.163,2.661-10.23,5.297-14.72
			c2.29-3.9,5.76-7.453,10.179-8.844c3.009-0.947,6.289-0.441,8.141,2.32c1.729,2.578,1.193,5.977,1.609,8.925
			c0.049,0.35,0.611,0.014,0.624-0.231C297.021,182.869,298.802,179.206,296.85,175.923z"/>
	</g>
	<g>
		<path style="fill:#EFB291;" d="M72.156,207.403c3.581,4.848,7.986,9.208,13.327,12.311c4.207,2.444,12.067,6.526,17.028,4.024
			c5.088-2.566,5.711-11.209,6.006-15.928c0.416-6.664-0.663-13.666-2.941-20.046c-0.458-3.561-1.32-7.143-2.818-10.439
			c-2.569-5.655-7.118-11.398-13.342-13.676c-10.882-3.983-22.449,1.35-25.644,11.945C60.395,186.795,65.414,198.276,72.156,207.403
			z"/>
		<path style="opacity:0.64;fill:#EB936D;" d="M97.269,224.411c-0.691-2.376-1.35-4.761-1.968-7.157
			c-2.466-9.555-4.372-19.299-5.171-29.144c-0.642-7.918-0.591-15.98,0.783-23.822c5.458,2.592,9.487,7.849,11.845,13.038
			c1.497,3.296,2.36,6.878,2.818,10.439c2.279,6.38,3.357,13.382,2.941,20.046c-0.295,4.719-0.918,13.362-6.006,15.928
			C100.976,224.512,99.164,224.654,97.269,224.411z"/>
		<path style="fill:#EB936D;" d="M68.947,175.923c1.193-2.007,3.372-3.191,5.639-3.485c5.218-0.677,10.584,2.995,13.888,6.702
			c7.355,8.254,8.73,20.211,9.158,30.798c0.025,0.62-0.883,0.19-0.949-0.242c-0.262-1.707-0.526-3.441-0.816-5.183
			c-0.205,1.247-0.508,2.472-0.809,3.57c-0.591,2.155-1.93,4.069-4.313,4.198c-5.754,0.311-9.744-6.549-12.529-10.474
			c-0.262-0.369,0.32-0.475,0.539-0.224c2.598,2.983,5.287,6.895,9.154,8.321c3.113,1.148,4.493-1.108,5.336-3.675
			c0.695-2.116,1.798-4.567,1.324-6.815c-0.066-0.312,0.056-0.473,0.242-0.53c-1.105-5.163-2.661-10.23-5.297-14.72
			c-2.29-3.9-5.76-7.453-10.179-8.844c-3.009-0.947-6.288-0.441-8.141,2.32c-1.729,2.578-1.193,5.977-1.609,8.925
			c-0.049,0.35-0.611,0.014-0.624-0.231C68.776,182.869,66.996,179.206,68.947,175.923z"/>
	</g>
	<path style="fill:#EFB291;" d="M266.508,92.02c-19.901-48.446-71.311-45.061-83.482-43.529
		c-12.169-1.553-63.573-5.025-83.556,43.388c-22.738,55.09-3.354,132.907,12.831,161.169c16.185,28.263,49.98,41.721,68.965,43.126
		c0,0,0.576,0.026,1.551,0.005c0.975,0.023,1.55-0.002,1.55-0.002c18.988-1.373,52.806-14.775,69.038-43.01
		C269.638,224.932,289.154,147.148,266.508,92.02z"/>
	<g>
		<path style="fill:#F07D77;" d="M209.77,242.804c-2.106,0.764-4.397,0.69-6.583,0.348c-1.997-0.313-3.954-0.842-5.886-1.424
			c-1.992-0.6-3.907-1.342-5.859-2.053c-1.982-0.721-4.186-1.273-6.276-0.657c-1.267,0.373-2.449,1.238-3.395,2.209
			c-0.946-0.971-2.127-1.836-3.395-2.209c-2.09-0.616-4.294-0.064-6.276,0.657c-1.952,0.711-3.867,1.453-5.859,2.053
			c-1.932,0.582-3.889,1.111-5.886,1.424c-2.186,0.342-4.476,0.415-6.583-0.348c-0.444-0.161-1.098,0.419-0.836,0.861
			c0.263,0.443,0.747,0.855,1.138,1.196c0.413,0.359,0.891,0.633,1.363,0.907c1.143,0.662,2.153,1.444,3.065,2.396
			c1.817,1.897,3.331,4.01,5.503,5.55c4.225,2.996,9.623,4.209,14.746,4.456c1.007,0.048,2.015,0.052,3.018,0
			c1.003,0.052,2.011,0.048,3.018,0c5.123-0.246,10.521-1.459,14.746-4.456c2.173-1.541,3.687-3.653,5.503-5.55
			c0.912-0.952,1.922-1.734,3.065-2.396c0.473-0.274,0.951-0.547,1.363-0.907c0.391-0.341,0.875-0.753,1.138-1.196
			C210.867,243.223,210.214,242.643,209.77,242.804z"/>
		<path style="fill:#D7513D;" d="M211.714,241.985c-1.42,1.186-3.088,1.74-4.781,2.427c-2.003,0.813-4.057,1.187-6.206,1.374
			c-2.103,0.184-4.223,0.173-6.332,0.213c-1.043,0.02-2.091,0.104-3.134,0.075c-0.958-0.026-1.914-0.132-2.873-0.115
			c-1.915,0.035-3.51,1.024-5.235,1.726c-1.936,0.787-3.961,0.592-5.862-0.183c-0.908-0.37-1.761-0.863-2.68-1.206
			c-0.866-0.324-1.749-0.596-2.665-0.74c-1.012-0.158-2.04-0.136-3.061-0.178c-1.068-0.044-2.136-0.1-3.202-0.173
			c-2.357-0.162-4.709-0.382-7.067-0.544c-1.173-0.081-2.337-0.208-3.502-0.37c-0.838-0.117-1.621-0.45-1.983-1.258
			c-0.132-0.294-0.625-0.037-0.554,0.243c0.159,0.628,0.321,1.269,0.907,1.621c0.729,0.438,1.634,0.52,2.459,0.625
			c2.223,0.284,4.47,0.345,6.699,0.576c2.203,0.229,4.413,0.364,6.625,0.465c1.067,0.049,2.087,0.108,3.119,0.406
			c0.954,0.276,1.871,0.669,2.805,1.004c1.942,0.696,3.829,1.086,5.899,0.816c1.963-0.256,3.684-1.355,5.63-1.67
			c1.003-0.162,2.037-0.087,3.045-0.021c1.05,0.068,2.081,0.051,3.132,0.026c2.218-0.052,4.452,0.019,6.652-0.319
			c2.445-0.375,4.833-1.104,7.238-1.666c1.891-0.441,4.259-0.971,5.538-2.555C212.717,242.098,212.21,241.571,211.714,241.985z"/>
	</g>
	<g>
		<g>
			<path style="opacity:0.65;fill:#92422B;" d="M177.897,224.385c-2.939-0.23-6.048-1.27-8.42-3.035
				c-1.14-0.848-2.201-1.972-2.557-3.386c-0.515-2.045,0.884-3.647,1.918-5.252c1.434-2.226,2.475-4.764,3.189-7.308
				c0.059-0.211-0.239-0.183-0.313-0.046c-1.261,2.336-2.277,4.78-3.78,6.983c-1.19,1.744-2.634,3.413-2.288,5.678
				c0.501,3.285,4.169,5.251,6.991,6.225c1.632,0.563,3.423,0.928,5.148,0.68C178.053,224.887,178.28,224.415,177.897,224.385z"/>
			<path style="opacity:0.65;fill:#92422B;" d="M193.431,215.738c-0.084-0.176-0.366,0.052-0.345,0.195
				c0.091,0.618,0.104,1.262,0.086,1.887c-0.019,0.644-0.084,1.292-0.266,1.912c-0.164,0.561-0.411,1.12-0.772,1.583
				c-0.395,0.506-0.943,0.847-1.439,1.24c-0.131,0.104-0.217,0.383,0.036,0.386c1.545,0.018,2.651-1.717,3.01-3.036
				C194.123,218.503,194.059,217.055,193.431,215.738z"/>
		</g>
		<g>
			<path style="fill:#FFFFFF;" d="M250.692,176.85c-0.624-1.152-1.331-2.257-2.014-3.374c-0.625-1.023-1.273-2.032-1.974-3.004
				c-0.294-0.408-0.603-0.809-0.921-1.203c-0.822-0.772-1.683-1.499-2.587-2.137c-3.185-2.25-7.006-3.495-10.901-3.518
				c-2.464,0.215-4.93,0.798-7.287,1.499c-1.132,0.337-2.242,0.743-3.314,1.23c-3.773,2.013-7.048,5.01-9.426,8.553
				c-0.568,0.983-1.078,2.001-1.526,3.038c-0.867,2.007-1.554,4.146-1.821,6.322c-0.196,1.602-0.184,3.32,0.434,4.831
				c0.046,0.024,0.091,0.05,0.137,0.074c0.102,0.089,0.208,0.177,0.323,0.262c1.033,0.767,2.326,1.221,3.539,1.61
				c2.354,0.755,4.75,1.364,7.195,1.744c9.465,1.471,19.579-0.126,27.514-5.71c1.086-0.764,2.137-1.597,3.126-2.482
				c0.693-0.62,1.388-1.353,1.837-2.196C252.439,180.47,251.648,178.615,250.692,176.85z"/>
			<path style="fill:#92422B;" d="M239.501,191.19c-0.323,0.063-0.649,0.122-0.974,0.182c-0.146,0.047-0.291,0.096-0.438,0.139
				c-2.149,0.637-4.367,1.036-6.596,1.256c-3.416,0.337-6.951,0.43-10.37-0.084c-2.244-0.148-4.472-0.444-6.663-0.932
				c0.891,0.332,1.787,0.646,2.698,0.922c2.174,0.66,4.367,1.056,6.636,1.171c4.549,0.23,9.193,0.043,13.618-1.118
				c1.239-0.325,2.462-0.745,3.635-1.258c0.892-0.391,1.898-0.827,2.736-1.408C242.378,190.516,240.953,190.906,239.501,191.19z"/>
			<g>
				<g>
					
						<ellipse transform="matrix(0.965 -0.2622 0.2622 0.965 -38.6861 66.6465)" style="fill:#92422B;" cx="230.363" cy="178.27" rx="14.537" ry="14.537"/>
					<path style="fill:#1A1716;" d="M241.187,178.405c-0.075,5.978-4.981,10.763-10.959,10.688
						c-5.978-0.075-10.763-4.981-10.688-10.959c0.075-5.978,4.981-10.763,10.959-10.688
						C236.476,167.521,241.261,172.427,241.187,178.405z"/>
					<path style="fill:#FFFFFF;" d="M229.044,172.277c-0.03,2.367-1.973,4.262-4.34,4.233c-2.367-0.03-4.262-1.973-4.233-4.34
						c0.03-2.367,1.973-4.262,4.34-4.233C227.179,167.966,229.074,169.909,229.044,172.277z"/>
					<path style="fill:#FFFFFF;" d="M221.294,178.524c-0.009,0.699-0.582,1.259-1.281,1.25c-0.699-0.009-1.259-0.583-1.25-1.281
						c0.009-0.699,0.582-1.259,1.281-1.25C220.743,177.251,221.303,177.825,221.294,178.524z"/>
				</g>
			</g>
			<path d="M252.203,181.513c0.095,0.21,0.208,0.422,0.351,0.606c1.665-0.382,3.261-1.099,4.732-1.942
				c1.434-0.822,2.786-1.793,4.015-2.899c-0.029,0.003-0.052-0.002-0.084,0.005c-0.865,0.178-1.711,0.417-2.572,0.607
				c-0.808,0.178-1.659,0.221-2.416-0.17c-0.677-0.35-1.156-0.947-1.573-1.568c-0.541-0.807-1.022-1.654-1.541-2.475
				c-1.991-3.15-4.837-6.164-8.273-7.714c-0.78-0.352-1.575-0.634-2.38-0.875c-0.96-0.429-1.94-0.811-2.932-1.135
				c-2.332-0.761-4.766-1.109-7.204-1.104c-2.986-0.055-5.985,0.435-8.773,1.452c-0.897,0.327-1.78,0.715-2.642,1.154
				c-3.49,1.65-6.665,4.08-8.85,7.242c-0.26,0.376-0.495,0.766-0.72,1.16c-1.509,2.274-2.386,4.832-2.942,7.503
				c-0.203,0.975-0.358,1.959-0.42,2.949c-0.196,1.471-0.205,2.954,0.142,4.383c0.054-0.444,0.145-0.884,0.228-1.283
				c0.219-1.067,0.522-2.116,0.833-3.16c0.33-1.11,0.613-2.232,1.018-3.318c0.19-0.51,0.401-1.012,0.624-1.508
				c0.483-1.673,1.136-3.283,2.094-4.764c2.165-3.345,5.424-6.109,9.038-7.864c0.678-0.298,1.366-0.566,2.061-0.796
				c4.661-1.546,9.777-1.705,14.441-0.132c0.157,0.053,0.312,0.111,0.468,0.167c4.068,1.609,7.351,4.904,9.683,8.533
				c0.81,1.261,1.533,2.573,2.231,3.899c0.314,0.596,0.679,1.203,0.92,1.826C251.914,180.697,252.024,181.115,252.203,181.513z"/>
		</g>
		<g>
			<path style="fill:#FFFFFF;" d="M114.254,176.85c0.624-1.152,1.331-2.257,2.014-3.374c0.624-1.023,1.273-2.032,1.974-3.004
				c0.294-0.408,0.603-0.809,0.921-1.203c0.822-0.772,1.683-1.499,2.587-2.137c3.185-2.25,7.006-3.495,10.901-3.518
				c2.464,0.215,4.93,0.798,7.287,1.499c1.132,0.337,2.242,0.743,3.314,1.23c3.773,2.013,7.048,5.01,9.426,8.553
				c0.568,0.983,1.078,2.001,1.526,3.038c0.867,2.007,1.554,4.146,1.821,6.322c0.196,1.602,0.184,3.32-0.434,4.831
				c-0.046,0.024-0.091,0.05-0.137,0.074c-0.102,0.089-0.208,0.177-0.323,0.262c-1.033,0.767-2.326,1.221-3.54,1.61
				c-2.354,0.755-4.75,1.364-7.195,1.744c-9.465,1.471-19.579-0.126-27.514-5.71c-1.086-0.764-2.137-1.597-3.126-2.482
				c-0.693-0.62-1.388-1.353-1.837-2.196C112.507,180.47,113.298,178.615,114.254,176.85z"/>
			<path style="fill:#92422B;" d="M125.445,191.19c0.323,0.063,0.649,0.122,0.973,0.182c0.146,0.047,0.291,0.096,0.438,0.139
				c2.149,0.637,4.367,1.036,6.596,1.256c3.416,0.337,6.951,0.43,10.37-0.084c2.244-0.148,4.472-0.444,6.664-0.932
				c-0.891,0.332-1.787,0.646-2.698,0.922c-2.174,0.66-4.367,1.056-6.636,1.171c-4.549,0.23-9.193,0.043-13.618-1.118
				c-1.239-0.325-2.462-0.745-3.635-1.258c-0.892-0.391-1.898-0.827-2.736-1.408C122.568,190.516,123.992,190.906,125.445,191.19z"
				/>
			<g>
				<g>
					
						<ellipse transform="matrix(0.9959 -0.0901 0.0901 0.9959 -15.5528 12.9798)" style="fill:#92422B;" cx="135.972" cy="178.733" rx="14.537" ry="14.537"/>
					<path style="fill:#1A1716;" d="M146.795,178.868c-0.075,5.978-4.981,10.763-10.959,10.688
						c-5.978-0.075-10.763-4.981-10.688-10.959c0.075-5.978,4.981-10.763,10.959-10.688
						C142.085,167.984,146.87,172.89,146.795,178.868z"/>
					<path style="fill:#FFFFFF;" d="M134.652,172.74c-0.03,2.367-1.973,4.262-4.34,4.233c-2.367-0.03-4.262-1.973-4.233-4.34
						c0.03-2.367,1.973-4.262,4.34-4.233C132.787,168.429,134.682,170.372,134.652,172.74z"/>
					<path style="fill:#FFFFFF;" d="M126.902,178.987c-0.009,0.699-0.582,1.259-1.282,1.25c-0.699-0.009-1.259-0.583-1.25-1.281
						c0.009-0.699,0.583-1.259,1.282-1.25C126.351,177.714,126.911,178.288,126.902,178.987z"/>
				</g>
			</g>
			<path d="M112.743,181.513c-0.095,0.21-0.208,0.422-0.351,0.606c-1.665-0.382-3.261-1.099-4.732-1.942
				c-1.434-0.822-2.786-1.793-4.015-2.899c0.029,0.003,0.052-0.002,0.084,0.005c0.865,0.178,1.711,0.417,2.572,0.607
				c0.808,0.178,1.659,0.221,2.416-0.17c0.677-0.35,1.156-0.947,1.573-1.568c0.542-0.807,1.022-1.654,1.541-2.475
				c1.991-3.15,4.837-6.164,8.273-7.714c0.78-0.352,1.575-0.634,2.38-0.875c0.96-0.429,1.94-0.811,2.932-1.135
				c2.332-0.761,4.766-1.109,7.204-1.104c2.986-0.055,5.985,0.435,8.774,1.452c0.897,0.327,1.78,0.715,2.642,1.154
				c3.49,1.65,6.665,4.08,8.85,7.242c0.26,0.376,0.495,0.766,0.72,1.16c1.509,2.274,2.386,4.832,2.942,7.503
				c0.203,0.975,0.358,1.959,0.42,2.949c0.196,1.471,0.205,2.954-0.142,4.383c-0.054-0.444-0.145-0.884-0.228-1.283
				c-0.219-1.067-0.522-2.116-0.833-3.16c-0.33-1.11-0.613-2.232-1.018-3.318c-0.19-0.51-0.401-1.012-0.624-1.508
				c-0.483-1.673-1.136-3.283-2.094-4.764c-2.165-3.345-5.424-6.109-9.038-7.864c-0.678-0.298-1.366-0.566-2.061-0.796
				c-4.661-1.546-9.777-1.705-14.441-0.132c-0.157,0.053-0.312,0.111-0.468,0.167c-4.068,1.609-7.351,4.904-9.683,8.533
				c-0.81,1.261-1.532,2.573-2.231,3.899c-0.314,0.596-0.679,1.203-0.92,1.826C113.032,180.697,112.922,181.115,112.743,181.513z"/>
		</g>
		<path d="M206.599,149.99c2.581-0.8,5.183-1.556,7.792-2.259c9.718-2.62,19.787-4.067,29.865-3.564
			c2.514,0.125,5.021,0.368,7.514,0.717c2.273,0.318,4.523,0.763,6.78,1.176c1.884,0.345,3.768,0.737,5.591,1.333
			c0.408,0.133,0.816,0.277,1.22,0.434c-1.193-4.306-5.255-7.584-9.159-9.362c-4.75-2.163-9.958-3.064-15.141-3.344
			c-2.654-0.143-5.315-0.127-7.971-0.043c-2.568,0.081-5.141,0.181-7.698,0.435c-1.721,0.171-3.486,0.403-5.238,0.742
			c-3.109,0.954-6.098,2.248-8.851,4.09c-2.642,1.767-5.103,3.859-7.187,6.262c-1.448,1.669-2.795,3.596-3.566,5.708
			C202.49,151.363,204.533,150.63,206.599,149.99z"/>
		<path d="M159.281,149.99c-2.581-0.8-5.183-1.556-7.792-2.259c-9.718-2.62-19.787-4.067-29.865-3.564
			c-2.514,0.125-5.021,0.368-7.513,0.717c-2.274,0.318-4.523,0.763-6.78,1.176c-1.884,0.345-3.768,0.737-5.591,1.333
			c-0.408,0.133-0.816,0.277-1.22,0.434c1.193-4.306,5.254-7.584,9.159-9.362c4.75-2.163,9.958-3.064,15.141-3.344
			c2.655-0.143,5.315-0.127,7.971-0.043c2.568,0.081,5.141,0.181,7.698,0.435c1.721,0.171,3.486,0.403,5.238,0.742
			c3.109,0.954,6.098,2.248,8.851,4.09c2.642,1.767,5.103,3.859,7.187,6.262c1.448,1.669,2.795,3.596,3.566,5.708
			C163.389,151.363,161.347,150.63,159.281,149.99z"/>
	</g>
	<path style="fill:#303133;" d="M247.99,90.929c-1.359-4.539-3.341-8.924-5.878-12.927c-4.6-7.259-11.16-12.9-19.326-15.732
		c-15.032-5.213-34.312-1.458-46.149,9.141c-6.189,5.542-11.002,12.984-13.641,20.912c-1.05,0.336-2.093,0.681-3.129,1.035
		c-0.537,0.184-0.62,1.027,0.081,0.931c0.853-0.116,1.704-0.249,2.553-0.388c-0.108,0.369-0.219,0.737-0.318,1.107
		c-0.439,1.646,1.934,1.194,2.354,0.043c0.197-0.54,0.401-1.077,0.608-1.613c6-1.113,11.945-2.596,17.971-3.558
		c7.754-1.237,15.626-1.76,23.467-1.19c7.689,0.559,15.318,2.114,22.553,4.797c6.199,2.298,13.301,5.341,17.837,10.321
		c0.744,0.816,2.263,0.145,2.534-0.835C250.577,99.095,249.105,94.655,247.99,90.929z"/>
	<path style="fill:#424346;" d="M311.152,133.324c-0.955-7.263-2.131-14.407-4.236-21.437c-2.071-6.916-4.723-13.639-7.471-20.309
		C289.482,67.4,276.44,41.232,252.713,27.87c-9.111-5.131-19.324-7.308-28.979-4.636c-4.784-6.543-12.253-10.931-19.985-13.273
		c-21.494-6.511-45.148,1.096-64.071,11.533C118.77,33.023,100.486,49.318,85.75,68.044c-14.996,19.057-27.293,41.137-32.25,65.057
		c-2.82,13.606-3.135,27.812-1.097,41.551c0.862,5.813,2.234,11.601,3.672,17.299c1.14,4.521,2.523,9.586,5.984,12.919
		c0.633,0.609,1.974-0.38,1.964-1.115c-0.021-1.576,0.002-3.149,0.061-4.719c0.392,7.584,1.811,15.124,5.325,21.891
		c0.444,0.856,2.007-0.225,1.803-1.016c-2.265-8.769-0.652-19.072,2.624-27.383c3.375-8.563,9.887-15.683,16.936-21.428
		c6.992-5.698,14.758-10.256,22.591-14.678c7.81-4.409,15.2-9.587,21.738-15.744c0.405-0.382,0.808-0.77,1.21-1.162
		c-2.77,4.385-6.225,8.333-9.808,12.065c-3.774,3.931-7.771,7.62-12.157,10.863c-2.279,1.685-4.619,3.321-7.157,4.59
		c-2.039,1.02-4.126,1.944-6.001,3.257c-0.562,0.393-0.731,1.329,0.133,1.409c10.994,1.023,21.477-5.634,29.583-12.368
		c8.639-7.176,15.807-15.904,22.027-25.216c6.434-9.632,11.903-19.859,17.509-29.981c4.911-8.866,9.604-18.837,17.283-25.7
		c4.387-3.92,10.51-6.568,16.148-3.532c5.142,2.769,4.826,8.445,4.962,13.498c0.015,0.568,0.598,0.486,0.96,0.207
		c0.255-0.061,0.503-0.221,0.622-0.458c2.137-4.256,6.021-7.456,10.811-8.137c4.811-0.684,8.286,1.858,10.173,6.144
		c1.749,3.974,2.245,8.485,3.061,12.712c0.97,5.02,1.966,10.031,3.158,15.004c4.451,18.57,11.645,36.417,26.184,49.379
		c7.052,6.287,16.18,11.918,26.009,10.49c0.111-0.016,0.23-0.06,0.348-0.122c4.74,9.411,7.009,19.774,9.124,30.058
		c0.268,1.301,2.124,0.223,2.392-0.511c2.437-6.676,2.211-14.433,2.512-21.447c0.351-8.173,0.157-16.356-0.736-24.491
		c-0.073-0.666-0.156-1.332-0.238-1.999c1.566,6.894,2.84,13.899,4.99,20.624c0.35,1.094,2.06,0.368,2.256-0.482
		C313.69,161.421,313.008,147.43,311.152,133.324z M274.359,153.469c-0.241-0.434-0.473-0.87-0.701-1.308
		c1.79,1.59,3.594,3.17,5.181,4.954c3.487,3.921,6.585,8.195,9.247,12.717C282.46,165.361,277.858,159.773,274.359,153.469z"/>
	<path style="fill:#405761;" d="M284.746,148.286c-4.96-0.62-10.539-0.62-19.219-4.34c-8.679-3.72-29.138-4.96-44.637-1.86
		c-15.499,3.1-21.444,12.139-23.248,13.949c-3.016,3.026-11.159,3.72-12.709,3.41c-1.55,0.31-9.693-0.384-12.709-3.41
		c-1.805-1.81-7.749-10.849-23.248-13.949c-15.499-3.1-35.958-1.86-44.637,1.86c-8.679,3.72-14.259,3.72-19.219,4.34
		c-4.96,0.62-4.96,4.34-4.96,4.34c0.62,9.299,3.893,8.406,5.58,11.779c0.62,1.24,1.24,8.059,1.86,16.739
		c0.62,8.679,8.06,22.938,19.839,27.898c11.779,4.96,34.718,7.439,48.977,0c14.259-7.439,17.359-24.798,19.839-33.478
		s8.679-6.82,8.679-6.82s6.2-1.86,8.679,6.82c2.48,8.679,5.58,26.038,19.839,33.478c14.259,7.439,37.197,4.96,48.977,0
		c11.779-4.96,19.219-19.219,19.839-27.898c0.62-8.679,1.24-15.499,1.86-16.739c1.686-3.373,4.96-2.48,5.58-11.779
		C289.706,152.626,289.706,148.906,284.746,148.286z M153.005,204.392c-14.259,7.439-37.197,6.2-48.977-3.1
		c-11.779-9.299-11.779-30.378-10.539-38.437c0,0,0-10.539,18.599-13.639c18.599-3.1,35.338-3.72,48.357,4.96
		c0,0,8.059,4.34,8.679,14.879C169.744,179.594,167.264,196.953,153.005,204.392z M265.837,201.292
		c-11.779,9.299-34.718,10.539-48.977,3.1c-14.259-7.439-16.739-24.798-16.119-35.338c0.62-10.539,8.68-14.879,8.68-14.879
		c13.019-8.679,29.758-8.059,48.357-4.96c18.599,3.1,18.599,13.639,18.599,13.639C277.616,170.914,277.616,191.993,265.837,201.292z
		"/>
</g>
</svg>
